<svg height="512pt" viewBox="0 -31 512 512" width="512pt" xmlns="http://www.w3.org/2000/svg"><path d="m391 75v30c0 8.398438-6.597656 15-15 15s-15-6.601562-15-15v-30c0-24.902344-20.097656-45-45-45h-121c-24.902344 0-45 20.097656-45 45v30c0 8.398438-6.597656 15-15 15s-15-6.601562-15-15v-30c0-41.398438 33.601562-75 75-75h121c41.398438 0 75 33.601562 75 75zm0 0" fill="#53433f"/><path d="m391 75v30c0 8.398438-6.597656 15-15 15s-15-6.601562-15-15v-30c0-24.902344-20.097656-45-45-45h-60v-30h60c41.398438 0 75 33.601562 75 75zm0 0" fill="#3e322e"/><path d="m512 351.898438c0 54-45.097656 98.101562-99.101562 98.101562h-314.796876c-54.003906 0-98.101562-44.101562-98.101562-98.101562 0-5.398438.601562-10.800782 1.199219-16.199219l29.101562-173.101563c1.199219-8.101562 9-13.800781 17.097657-12.296875h417.199218c8.101563-1.5 15.902344 4.199219 17.101563 12.296875l29.101562 173.101563c.597657 5.402343 1.199219 10.800781 1.199219 16.199219zm0 0" fill="#99503d"/><path d="m512 351.898438c0 54-45.097656 98.101562-99.101562 98.101562h-156.898438v-299.699219h208.597656c8.101563-1.5 15.902344 4.199219 17.101563 12.296875l29.101562 173.101563c.597657 5.402343 1.199219 10.800781 1.199219 16.199219zm0 0" fill="#804231"/><path d="m482 135v30c0 41.398438-34.601562 75-76 75h-301c-41.398438 0-75-33.601562-75-75v-30c0-24.902344 20.097656-45 45-45h105l76 30 75-30h106c24.902344 0 45 20.097656 45 45zm0 0" fill="#d2c5c2"/><path d="m482 135v30c0 41.398438-34.601562 75-76 75h-150v-120l75-30h106c24.902344 0 45 20.097656 45 45zm0 0" fill="#c4b3af"/><path d="m331 90v182.699219c0 12-4.800781 23.101562-13.199219 31.800781l-30 30c-8.699219 8.699219-20.402343 12.898438-31.800781 12.898438s-23.101562-4.199219-31.800781-12.898438l-31-30c-8.398438-8.699219-13.199219-19.800781-13.199219-31.800781v-182.699219zm0 0" fill="#ede9e8"/><path d="m256 90h75v182.699219c0 12-4.800781 23.101562-13.199219 31.800781l-30 30c-8.699219 8.699219-20.402343 12.898438-31.800781 12.898438zm0 0" fill="#dfd7d5"/><path d="m271 255c0 8.398438-6.597656 15-15 15s-15-6.601562-15-15c0-8.402344 6.597656-15 15-15s15 6.597656 15 15zm0 0" fill="#53433f"/><path d="m271 255c0 8.398438-6.597656 15-15 15v-30c8.402344 0 15 6.597656 15 15zm0 0" fill="#3e322e"/></svg>