<?xml version="1.0"?>
<svg xmlns="http://www.w3.org/2000/svg" xmlns:xlink="http://www.w3.org/1999/xlink" xmlns:svgjs="http://svgjs.com/svgjs" version="1.1" width="512" height="512" x="0" y="0" viewBox="0 0 512 512" style="enable-background:new 0 0 512 512" xml:space="preserve"><g><path xmlns="http://www.w3.org/2000/svg" d="m215.394531 283.183594 30 30c5.859375 5.859375 15.351563 5.859375 21.210938 0l30-30c2.796875-2.796875 4.394531-6.664063 4.394531-10.605469v-182.578125h-90v182.578125c0 3.941406 1.597656 7.808594 4.394531 10.605469zm40.578125-43.183594c8.285156 0 15 6.714844 15 15s-6.714844 15-15 15-15-6.714844-15-15 6.714844-15 15-15zm0 0" fill="#4c1d07" data-original="#000000" style=""/><path xmlns="http://www.w3.org/2000/svg" d="m331 90v150h76c41.351562 0 75-33.648438 75-75v-30c0-24.8125-20.1875-45-45-45h-46v-15c0-41.351562-33.648438-75-75-75h-120c-41.351562 0-75 33.648438-75 75v15h-46c-24.8125 0-45 20.1875-45 45v30c0 41.351562 34.648438 75 76 75h75v-150h-30v-15c0-24.8125 20.1875-45 45-45h120c24.8125 0 45 20.1875 45 45v15zm0 0" fill="#4c1d07" data-original="#000000" style=""/><path xmlns="http://www.w3.org/2000/svg" d="m492.328125 225.738281c-19.058594 26.6875-50.109375 44.261719-85.328125 44.261719h-76v2.578125c0 12.011719-4.6875 23.320313-13.183594 31.816406l-30 30c-8.773437 8.773438-20.289062 13.152344-31.816406 13.152344s-23.042969-4.378906-31.816406-13.152344l-30-30c-8.496094-8.496093-13.183594-19.804687-13.183594-31.816406v-2.578125h-75c-35.214844 0-67.269531-17.574219-86.328125-44.261719l-18.339844 110.03125c-.878906 5.320313-1.332031 10.710938-1.332031 16.117188 0 54.09375 44.019531 98.113281 98.113281 98.113281h315.773438c54.09375 0 98.113281-44.019531 98.113281-98.113281 0-5.40625-.453125-10.796875-1.332031-16.128907zm0 0" fill="#4c1d07" data-original="#000000" style=""/></g></svg>
